<svg xmlns="http://www.w3.org/2000/svg" xmlns:xlink="http://www.w3.org/1999/xlink" width="1156" height="1037" viewBox="0 0 1156 1037">
  <defs>
    <clipPath id="clip-path">
      <rect id="Rectangle_5187" data-name="Rectangle 5187" width="1156" height="1037" rx="20" transform="translate(735 23)" fill="#fff"/>
    </clipPath>
  </defs>
  <g id="Mask_Group_6" data-name="Mask Group 6" transform="translate(-735 -23)" clip-path="url(#clip-path)">
    <g id="Login-rafiki_1_" data-name="Login-rafiki (1)" transform="translate(735 -16.339)">
      <g id="freepik--background-complete--inject-11">
        <rect id="Rectangle_5188" data-name="Rectangle 5188" width="1156" height="0.578" transform="translate(0 884.109)" fill="#ebebeb"/>
        <rect id="Rectangle_5189" data-name="Rectangle 5189" width="50.124" height="0.578" transform="translate(990.045 921.309)" fill="#ebebeb"/>
        <rect id="Rectangle_5190" data-name="Rectangle 5190" width="78.862" height="0.578" transform="translate(718.015 909.333)" fill="#ebebeb"/>
        <rect id="Rectangle_5191" data-name="Rectangle 5191" width="102.953" height="0.578" transform="translate(916.916 899.854)" fill="#ebebeb"/>
        <rect id="Rectangle_5192" data-name="Rectangle 5192" width="25.756" height="0.578" transform="translate(374.267 911.506)" fill="#ebebeb"/>
        <rect id="Rectangle_5193" data-name="Rectangle 5193" width="88.758" height="0.578" transform="translate(264.909 911.506)" fill="#ebebeb"/>
        <rect id="Rectangle_5194" data-name="Rectangle 5194" width="64.042" height="0.578" transform="translate(153.309 901.749)" fill="#ebebeb"/>
        <path id="Path_9220" data-name="Path 9220" d="M547.944,780.994H101.52a13.2,13.2,0,0,1-13.178-13.2V140.246A13.2,13.2,0,0,1,101.52,127.16H547.944a13.2,13.2,0,0,1,13.2,13.2V767.792A13.2,13.2,0,0,1,547.944,780.994ZM101.52,127.622a12.624,12.624,0,0,0-12.6,12.624V767.792a12.624,12.624,0,0,0,12.6,12.624H547.944a12.647,12.647,0,0,0,12.623-12.624V140.246a12.647,12.647,0,0,0-12.624-12.624Z" fill="#ebebeb"/>
        <path id="Path_9221" data-name="Path 9221" d="M1048.053,780.994H601.606a13.225,13.225,0,0,1-13.2-13.2V140.246a13.225,13.225,0,0,1,13.2-13.086h446.447a13.2,13.2,0,0,1,13.155,13.086V767.792A13.2,13.2,0,0,1,1048.053,780.994ZM601.606,127.622a12.647,12.647,0,0,0-12.624,12.624V767.792a12.647,12.647,0,0,0,12.624,12.623h446.447a12.647,12.647,0,0,0,12.624-12.624V140.246a12.647,12.647,0,0,0-12.624-12.624Z" fill="#ebebeb"/>
        <path id="Path_9222" data-name="Path 9222" d="M265.88,403.745a48.344,48.344,0,0,0,0-96.688h-5.942v96.688Z" fill="#e0e0e0"/>
        <circle id="Ellipse_36" data-name="Ellipse 36" cx="48.344" cy="48.344" r="48.344" transform="translate(211.548 307.057)" fill="#f5f5f5"/>
        <path id="Path_9223" data-name="Path 9223" d="M257.672,361.458a64.736,64.736,0,0,1-64.736-64.736V258.089a6.081,6.081,0,1,1,12.161,0v38.657a52.621,52.621,0,0,0,52.552,52.575,6.081,6.081,0,1,1,0,12.138Z" fill="#e0e0e0"/>
        <path id="Path_9224" data-name="Path 9224" d="M145.263,292.121H252.817a11.236,11.236,0,0,0,10.866-14.1L254.32,242.76a11.236,11.236,0,0,0-10.843-8.369H154.6a11.259,11.259,0,0,0-10.866,8.369l-9.248,35.212a11.213,11.213,0,0,0,10.774,14.149Z" fill="#f5f5f5"/>
        <path id="Path_9225" data-name="Path 9225" d="M948.567,403.745a48.344,48.344,0,0,0,0-96.688h-5.942v96.688Z" fill="#e0e0e0"/>
        <circle id="Ellipse_37" data-name="Ellipse 37" cx="48.344" cy="48.344" r="48.344" transform="translate(894.282 307.057)" fill="#f5f5f5"/>
        <path id="Path_9226" data-name="Path 9226" d="M940.406,361.458a64.736,64.736,0,0,1-64.736-64.736V258.089a6.081,6.081,0,1,1,12.161,0v38.657a52.621,52.621,0,0,0,52.552,52.575,6.081,6.081,0,1,1,0,12.138Z" fill="#e0e0e0"/>
        <path id="Path_9227" data-name="Path 9227" d="M828,292.121H935.551a11.236,11.236,0,0,0,10.867-14.1l-9.248-35.212a11.237,11.237,0,0,0-10.843-8.369H837.337a11.259,11.259,0,0,0-10.867,8.369l-9.248,35.212A11.213,11.213,0,0,0,828,292.121Z" fill="#f5f5f5"/>
        <rect id="Rectangle_5195" data-name="Rectangle 5195" width="35.166" height="136.246" transform="translate(344.927 730.268) rotate(180)" fill="#e6e6e6"/>
        <path id="Path_9228" data-name="Path 9228" d="M214.438,730.245H331.125l17.617-159.459H232.055Z" fill="#f0f0f0"/>
        <path id="Path_9229" data-name="Path 9229" d="M201.791,730.245H322.339l17.617-159.459H219.432Z" fill="#f5f5f5"/>
        <path id="Path_9230" data-name="Path 9230" d="M313.623,717.691l14.843-134.327H228.125L213.282,717.691Z" fill="#fff"/>
        <path id="Path_9231" data-name="Path 9231" d="M292.907,685.115l.717-5.387c3.722-33.709-17.317-63.742-44.645-63.742h0l-.624,5.479c-3.722,33.686,17.317,63.719,44.668,63.719Z" fill="#f5f5f5"/>
        <rect id="Rectangle_5196" data-name="Rectangle 5196" width="103.67" height="153.864" transform="translate(240.286 884.109) rotate(180)" fill="#e6e6e6"/>
        <path id="Path_9232" data-name="Path 9232" d="M147.02,884.109H136.593V854.446h21.363Z" fill="#f0f0f0"/>
        <rect id="Rectangle_5197" data-name="Rectangle 5197" width="103.67" height="153.864" transform="translate(530.835 884.109) rotate(180)" fill="#e6e6e6"/>
        <rect id="Rectangle_5198" data-name="Rectangle 5198" width="299.658" height="135.645" transform="translate(436.251 865.913) rotate(180)" fill="#f0f0f0"/>
        <path id="Path_9233" data-name="Path 9233" d="M425.824,884.109h10.427V854.446H414.888Z" fill="#f0f0f0"/>
        <rect id="Rectangle_5199" data-name="Rectangle 5199" width="283.474" height="54.748" transform="translate(428.159 793.478) rotate(180)" fill="#e6e6e6"/>
        <path id="Path_9234" data-name="Path 9234" d="M267.522,774.52h37.8a59.742,59.742,0,0,0,43.419-18.681H224.1a59.811,59.811,0,0,0,43.419,18.681Z" fill="#f0f0f0"/>
        <rect id="Rectangle_5200" data-name="Rectangle 5200" width="283.474" height="54.748" transform="translate(428.159 857.058) rotate(180)" fill="#e6e6e6"/>
        <path id="Path_9235" data-name="Path 9235" d="M267.522,838.008h37.8a59.742,59.742,0,0,0,43.419-18.681H224.1a59.811,59.811,0,0,0,43.419,18.681Z" fill="#f0f0f0"/>
        <path id="Path_9236" data-name="Path 9236" d="M417.27,723.98h2.682c0-5.526,0-19.513.277-51.581.486-58.147,1.41-61.684,1.41-61.684l-6.381,26.842C411.212,667.266,416.437,697.137,417.27,723.98Z" fill="#e6e6e6"/>
        <path id="Path_9237" data-name="Path 9237" d="M411.975,633.488c-9.248-10.936-28.784-14.126-48.853-16.855-7.884-1.063,20.692,16.947,34.68,29.732,10.866,9.942,17.8,12.693,20.808,22.588C420.137,656.608,419.882,642.99,411.975,633.488Z" fill="#e6e6e6"/>
        <path id="Path_9238" data-name="Path 9238" d="M424.16,653.094c9.248-10.936,28.784-14.1,48.853-16.831,7.884-1.064-20.808,16.947-34.68,29.732-10.866,9.942-17.8,12.693-20.808,22.588C416,676.237,416.16,662.527,424.16,653.094Z" fill="#e6e6e6"/>
        <path id="Path_9239" data-name="Path 9239" d="M420.229,608.056c6.936-13.086,24.184-25.432,43.627-30.056,7.63-1.826-17.687,24.137-27.3,40.9-7.468,12.993-17.363,28.3-18.912,39.3C415.328,636.517,413.339,621.211,420.229,608.056Z" fill="#e6e6e6"/>
        <path id="Path_9240" data-name="Path 9240" d="M419.4,730.245h0c-8.184,0-14.959-4.092-15.444-9.364l-1.364-8.971h33.64l-1.387,8.971C434.379,726.153,427.72,730.245,419.4,730.245Z" fill="#f0f0f0"/>
        <path id="Path_9241" data-name="Path 9241" d="M438.4,715.356H400.415l-1.087-10.011h40.159Z" fill="#f0f0f0"/>
        <rect id="Rectangle_5201" data-name="Rectangle 5201" width="370.406" height="337.853" transform="translate(762.382 524.177) rotate(180)" fill="#e6e6e6"/>
        <rect id="Rectangle_5202" data-name="Rectangle 5202" width="375.099" height="337.853" transform="translate(758.752 524.177) rotate(180)" fill="#f5f5f5"/>
        <rect id="Rectangle_5203" data-name="Rectangle 5203" width="307.588" height="345.182" transform="translate(743.77 201.468) rotate(90)" fill="#fafafa"/>
        <path id="Path_9242" data-name="Path 9242" d="M701.438,509.056,565.585,201.468H519.437L655.29,509.056Z" fill="#fff"/>
        <path id="Path_9243" data-name="Path 9243" d="M642.2,509.056,506.351,201.468H474.584L610.437,509.056Z" fill="#fff"/>
        <rect id="Rectangle_5204" data-name="Rectangle 5204" width="307.588" height="17.849" transform="translate(526.766 201.445) rotate(90)" fill="#e6e6e6"/>
        <rect id="Rectangle_5205" data-name="Rectangle 5205" width="307.588" height="17.849" transform="translate(645.418 201.445) rotate(90)" fill="#e6e6e6"/>
        <rect id="Rectangle_5206" data-name="Rectangle 5206" width="328.443" height="22.565" transform="translate(523.552 190.208) rotate(90)" fill="#f5f5f5"/>
        <rect id="Rectangle_5207" data-name="Rectangle 5207" width="328.443" height="22.565" transform="translate(642.204 190.208) rotate(90)" fill="#f5f5f5"/>
        <rect id="Rectangle_5208" data-name="Rectangle 5208" width="307.588" height="1.595" transform="translate(400.207 201.468) rotate(90)" fill="#e6e6e6"/>
        <path id="Path_9244" data-name="Path 9244" d="M377.365,166.857H778.635a1.965,1.965,0,0,1,1.942,1.942h0a1.942,1.942,0,0,1-1.942,1.919H377.365a1.942,1.942,0,0,1-1.942-1.919h0a1.965,1.965,0,0,1,1.942-1.942Z" fill="#e6e6e6"/>
        <path id="Path_9245" data-name="Path 9245" d="M762.382,179.6h0a2.613,2.613,0,0,0,2.589-2.613v-5.6a2.59,2.59,0,0,0-2.589-2.613h0a2.613,2.613,0,0,0-2.613,2.59v5.595a2.636,2.636,0,0,0,2.613,2.636Z" fill="#e6e6e6"/>
        <path id="Path_9246" data-name="Path 9246" d="M406.45,179.6h0a2.636,2.636,0,0,0,2.613-2.613v-5.6a2.613,2.613,0,0,0-2.613-2.613h0a2.589,2.589,0,0,0-2.589,2.589v5.6A2.613,2.613,0,0,0,406.45,179.6Z" fill="#e6e6e6"/>
        <rect id="Rectangle_5209" data-name="Rectangle 5209" width="374.845" height="264.585" transform="translate(752.81 433.361) rotate(180)" fill="#e0e0e0" opacity="0.6"/>
        <rect id="Rectangle_5210" data-name="Rectangle 5210" width="89.521" height="54.794" rx="12.439" transform="translate(709.668 601.051)" fill="#fafafa"/>
        <rect id="Rectangle_5211" data-name="Rectangle 5211" width="89.521" height="11.745" rx="4.185" transform="translate(709.668 590.924)" fill="#e6e6e6"/>
        <path id="Path_9247" data-name="Path 9247" d="M710.986,716.72s1.179,38.541,46.078,38.541,46.078-38.541,46.078-38.541Z" fill="#f0f0f0"/>
        <path id="Path_9248" data-name="Path 9248" d="M813.362,716.72s1.179,38.541,46.078,38.541,46.078-38.541,46.078-38.541Z" fill="#f0f0f0"/>
        <rect id="Rectangle_5212" data-name="Rectangle 5212" width="122.998" height="79.625" rx="17.109" transform="translate(777.387 576.243)" fill="#f0f0f0"/>
        <rect id="Rectangle_5213" data-name="Rectangle 5213" width="122.998" height="16.138" rx="5.734" transform="translate(777.387 562.325)" fill="#f5f5f5"/>
        <rect id="Rectangle_5214" data-name="Rectangle 5214" width="11.652" height="191.064" transform="translate(688.814 884.109) rotate(180)" fill="#e6e6e6"/>
        <rect id="Rectangle_5215" data-name="Rectangle 5215" width="63.094" height="37.177" transform="translate(950.533 655.845)" fill="#e6e6e6"/>
        <rect id="Rectangle_5216" data-name="Rectangle 5216" width="313.692" height="37.177" transform="translate(950.509 693.045) rotate(180)" fill="#f5f5f5"/>
        <rect id="Rectangle_5217" data-name="Rectangle 5217" width="63.094" height="37.177" transform="translate(950.533 755.145)" fill="#e6e6e6"/>
        <rect id="Rectangle_5218" data-name="Rectangle 5218" width="313.692" height="37.177" transform="translate(950.509 792.322) rotate(180)" fill="#f5f5f5"/>
        <rect id="Rectangle_5219" data-name="Rectangle 5219" width="11.652" height="191.064" transform="translate(1002.506 884.109) rotate(180)" fill="#e6e6e6"/>
        <rect id="Rectangle_5220" data-name="Rectangle 5220" width="11.652" height="191.064" transform="translate(950.532 884.109) rotate(180)" fill="#f5f5f5"/>
        <rect id="Rectangle_5221" data-name="Rectangle 5221" width="11.652" height="191.064" transform="translate(648.47 884.109) rotate(180)" fill="#f5f5f5"/>
      </g>
      <g id="freepik--Shadow--inject-11">
        <ellipse id="freepik--path--inject-11" cx="448.274" cy="26.172" rx="448.274" ry="26.172" transform="translate(129.726 936.175)" fill="#f5f5f5"/>
      </g>
      <g id="freepik--Login--inject-11">
        <path id="Path_9249" data-name="Path 9249" d="M602.068,845.036H307.126a18.8,18.8,0,0,1-18.5-17.664L262.181,315.149a16.577,16.577,0,0,1,16.739-17.641H573.862a18.773,18.773,0,0,1,18.5,17.641l26.4,512.224a16.6,16.6,0,0,1-16.693,17.664Z" fill="#595cff"/>
        <path id="Path_9250" data-name="Path 9250" d="M602.068,845.036H307.126a18.8,18.8,0,0,1-18.5-17.664L262.181,315.149a16.577,16.577,0,0,1,16.739-17.641H573.862a18.773,18.773,0,0,1,18.5,17.641l26.4,512.224a16.6,16.6,0,0,1-16.693,17.664Z" fill="#fff" opacity="0.8"/>
        <rect id="Rectangle_5222" data-name="Rectangle 5222" width="32.622" height="2.312" transform="translate(512.131 280.816)" fill="#595cff"/>
        <rect id="Rectangle_5223" data-name="Rectangle 5223" width="11.953" height="2.312" transform="translate(488.872 280.816)" fill="#595cff"/>
        <path id="Path_9251" data-name="Path 9251" d="M614.761,812.529H332.7a17.964,17.964,0,0,1-17.756-16.855L289.694,305.762a15.86,15.86,0,0,1,16.022-16.878H587.78a17.964,17.964,0,0,1,17.733,16.878L630.76,795.675a15.837,15.837,0,0,1-16,16.854Z" fill="#595cff"/>
        <path id="Path_9252" data-name="Path 9252" d="M614.761,801.27H332.7a6.751,6.751,0,0,1-6.5-6.2l-25.27-489.89a4.611,4.611,0,0,1,4.763-5.017H587.757a6.751,6.751,0,0,1,6.474,6.2l25.386,489.89a4.624,4.624,0,0,1-4.74,5.017ZM305.693,300.745a4.139,4.139,0,0,0-3.1,1.248,4.254,4.254,0,0,0-1.087,3.167l25.247,489.89a6.173,6.173,0,0,0,5.919,5.641H614.738a4.023,4.023,0,0,0,3.075-1.249,4.069,4.069,0,0,0,1.087-3.167l-25.224-489.89a6.15,6.15,0,0,0-5.9-5.641Z" fill="#fff"/>
        <ellipse id="Ellipse_38" data-name="Ellipse 38" cx="83.232" cy="87.625" rx="83.232" ry="87.625" transform="matrix(0.698, -0.716, 0.716, 0.698, 332.503, 416.014)" fill="#fff" opacity="0.3"/>
        <path id="Path_9253" data-name="Path 9253" d="M522.512,417.57a66.378,66.378,0,0,1-6.635,32.923,64.9,64.9,0,0,1-58.887,36.183,73.406,73.406,0,0,1-62.609-36.183,71.164,71.164,0,0,1-10.034-32.923,64.944,64.944,0,0,1,65.522-69.083,73.545,73.545,0,0,1,72.643,69.083Z" fill="#fff"/>
        <path id="Path_9254" data-name="Path 9254" d="M515.807,450.493a64.9,64.9,0,0,1-58.887,36.183,73.406,73.406,0,0,1-62.609-36.183A104.41,104.41,0,0,1,454.1,432,113.612,113.612,0,0,1,515.807,450.493Z" fill="#595cff"/>
        <ellipse id="Ellipse_39" data-name="Ellipse 39" cx="29.987" cy="31.582" rx="29.987" ry="31.582" transform="matrix(0.698, -0.716, 0.716, 0.698, 408.6, 393.358)" fill="#595cff"/>
        <path id="Path_9255" data-name="Path 9255" d="M574.324,621.928H353.459a7.606,7.606,0,0,1-7.514-7.144l-1.665-32.368a6.7,6.7,0,0,1,6.774-7.121H571.919a7.607,7.607,0,0,1,7.514,7.121l1.665,32.368a6.7,6.7,0,0,1-6.774,7.144Z" fill="#fff"/>
        <path id="Path_9256" data-name="Path 9256" d="M506.7,557.423H414.449a7.606,7.606,0,0,1-7.537-7.167l-.347-6.936a6.7,6.7,0,0,1,6.774-7.144h92.226a7.606,7.606,0,0,1,7.514,7.144l.37,6.936a6.751,6.751,0,0,1-6.751,7.167Z" opacity="0.3"/>
        <path id="Path_9257" data-name="Path 9257" d="M541.008,777.549H402.82a12.97,12.97,0,0,1-12.785-12.161l-.809-15.953a11.56,11.56,0,0,1,11.56-12.161H538.927a12.97,12.97,0,0,1,12.785,12.161l.809,15.953a11.56,11.56,0,0,1-11.514,12.161Z" opacity="0.3"/>
        <path id="Path_9258" data-name="Path 9258" d="M578.37,700.212H357.481a7.63,7.63,0,0,1-7.514-7.144L348.3,660.7a6.728,6.728,0,0,1,6.774-7.144H575.942a7.606,7.606,0,0,1,7.514,7.144l1.688,32.368a6.751,6.751,0,0,1-6.774,7.144Z" fill="#fff"/>
        <path id="Path_9259" data-name="Path 9259" d="M381.48,598.6a7.445,7.445,0,0,1-7.514,7.907,8.416,8.416,0,0,1-8.3-7.907,7.422,7.422,0,0,1,7.491-7.907,8.439,8.439,0,0,1,8.323,7.907Z" fill="#263238"/>
        <path id="Path_9260" data-name="Path 9260" d="M405.825,598.6a7.422,7.422,0,0,1-7.491,7.907,8.393,8.393,0,0,1-8.3-7.907,7.422,7.422,0,0,1,7.491-7.907A8.393,8.393,0,0,1,405.825,598.6Z" fill="#263238"/>
        <path id="Path_9261" data-name="Path 9261" d="M430.032,598.6a7.422,7.422,0,0,1-7.491,7.907,8.439,8.439,0,0,1-8.323-7.907,7.445,7.445,0,0,1,7.514-7.907A8.416,8.416,0,0,1,430.032,598.6Z" fill="#263238"/>
        <path id="Path_9262" data-name="Path 9262" d="M454.424,598.6a7.445,7.445,0,0,1-7.491,7.907,8.439,8.439,0,0,1-8.323-7.907,7.445,7.445,0,0,1,7.491-7.907,8.439,8.439,0,0,1,8.323,7.907Z" fill="#263238"/>
        <path id="Path_9263" data-name="Path 9263" d="M385.572,676.838a7.421,7.421,0,0,1-7.491,7.907,8.439,8.439,0,0,1-8.323-7.907,7.445,7.445,0,0,1,7.514-7.907A8.416,8.416,0,0,1,385.572,676.838Z" fill="#263238"/>
        <path id="Path_9264" data-name="Path 9264" d="M409.871,676.838a7.445,7.445,0,0,1-7.491,7.907,8.439,8.439,0,0,1-8.323-7.907,7.421,7.421,0,0,1,7.491-7.907,8.439,8.439,0,0,1,8.323,7.907Z" fill="#263238"/>
        <path id="Path_9265" data-name="Path 9265" d="M434.17,676.838a7.445,7.445,0,0,1-7.514,7.907,8.393,8.393,0,0,1-8.3-7.907,7.421,7.421,0,0,1,7.491-7.907,8.439,8.439,0,0,1,8.323,7.907Z" fill="#263238"/>
        <path id="Path_9266" data-name="Path 9266" d="M458.446,676.838a7.421,7.421,0,0,1-7.491,7.907,8.439,8.439,0,0,1-8.323-7.907,7.445,7.445,0,0,1,7.514-7.907,8.393,8.393,0,0,1,8.3,7.907Z" fill="#263238"/>
        <path id="Path_9267" data-name="Path 9267" d="M482.746,676.838a7.421,7.421,0,0,1-7.491,7.907,8.439,8.439,0,0,1-8.323-7.907,7.445,7.445,0,0,1,7.491-7.907,8.439,8.439,0,0,1,8.323,7.907Z" fill="#263238"/>
        <path id="Path_9268" data-name="Path 9268" d="M507.045,676.838a7.445,7.445,0,0,1-7.514,7.907,8.416,8.416,0,0,1-8.3-7.907,7.421,7.421,0,0,1,7.491-7.907,8.439,8.439,0,0,1,8.323,7.907Z" fill="#263238"/>
      </g>
      <g id="freepik--Character--inject-11">
        <path id="Path_9269" data-name="Path 9269" d="M769.9,408.345c.578.879.879,1.341,1.249,1.965l1.04,1.711c.671,1.156,1.272,2.312,1.85,3.445,1.156,2.312,2.312,4.624,3.237,6.936a127.636,127.636,0,0,1,4.994,14.08,147.443,147.443,0,0,1,5.5,28.992l.162,1.826a10.6,10.6,0,0,1,0,1.11v1.225a29.579,29.579,0,0,1-.277,4.809,39.624,39.624,0,0,1-2.312,8.624,59.675,59.675,0,0,1-8,13.872,99.163,99.163,0,0,1-21.525,20.369l-6.381-7.468a132.6,132.6,0,0,0,15.352-21.247,48.548,48.548,0,0,0,4.624-10.913,22.041,22.041,0,0,0,.763-4.948,10.835,10.835,0,0,0,0-2.15V470.1a3.012,3.012,0,0,0,0-.647l-.277-1.618a183.241,183.241,0,0,0-6.289-25.432c-1.341-4.138-2.982-8.138-4.624-12.046-.809-1.965-1.734-3.884-2.659-5.734l-1.433-2.728-.717-1.272-.6-1.017Z" fill="#803e3c"/>
        <path id="Path_9270" data-name="Path 9270" d="M748.394,517.356l8.369,17.687,6.635-14.959s-5.9-12.947-13.872-11.745Z" fill="#7f3e3b"/>
        <path id="Path_9271" data-name="Path 9271" d="M762.752,535.922l6.659-10.913-6.011-4.925-6.635,14.959Z" fill="#7f3e3b"/>
        <path id="Path_9272" data-name="Path 9272" d="M725.113,943.8a23.736,23.736,0,0,0,5.133-.694.509.509,0,0,0,.347-.37.462.462,0,0,0-.208-.462c-.67-.439-6.543-4.231-8.809-3.214a1.572,1.572,0,0,0-.9,1.295,2.612,2.612,0,0,0,.763,2.312,5.48,5.48,0,0,0,3.676,1.133Zm3.815-1.364c-3.352.694-5.9.578-6.936-.324a1.78,1.78,0,0,1-.486-1.642.56.56,0,0,1,.393-.578C723.147,939.343,726.546,940.984,728.927,942.441Z" fill="#595cff"/>
        <path id="Path_9273" data-name="Path 9273" d="M730.13,943.111h.231a.509.509,0,0,0,.231-.416c0-.231,0-5.8-2.127-7.676a2.428,2.428,0,0,0-1.942-.6,1.6,1.6,0,0,0-1.549,1.272c-.439,2.2,3.075,6.358,4.925,7.422Zm-3.306-7.838a1.41,1.41,0,0,1,1.017.393,10.474,10.474,0,0,1,1.8,6.1c-1.85-1.48-4.046-4.624-3.769-5.942,0-.208.162-.486.74-.555Z" fill="#595cff"/>
        <path id="Path_9274" data-name="Path 9274" d="M703.287,934.372a.486.486,0,0,0-.324-.786c-.948,0-9.248-.393-11.144,1.642v.139a1.457,1.457,0,0,0-.208,1.433,2.566,2.566,0,0,0,1.688,1.688c2.682.832,7.422-2.2,10.011-4.069Zm-10.774,1.457c1.04-1.11,5.618-1.41,9.04-1.364-3.584,2.451-6.566,3.607-8.069,3.144a1.665,1.665,0,0,1-1.11-1.11.624.624,0,0,1,0-.578Z" fill="#595cff"/>
        <path id="Path_9275" data-name="Path 9275" d="M703.287,934.372h0a.532.532,0,0,0,0-.462c-.116-.185-2.705-4.624-5.757-5.549a3.353,3.353,0,0,0-2.636.324c-1.11.647-1.179,1.41-1.04,1.9.6,2.15,6.5,4.046,9.04,4.023a.463.463,0,0,0,.393-.231Zm-8.3-4.624a1.938,1.938,0,0,1,.439-.324,2.312,2.312,0,0,1,1.942-.254c2.011.532,3.884,3.121,4.74,4.393-2.751-.3-6.936-1.988-7.283-3.283a.532.532,0,0,1,.162-.555Z" fill="#595cff"/>
        <path id="Path_9276" data-name="Path 9276" d="M728.742,340.627c-2.312,11.56-7.306,36.553.717,44.229,0,0-3.144,11.56-24.484,11.56-23.49,0-11.213-11.56-11.213-11.56,12.809-3.052,12.485-12.577,10.242-21.5Z" fill="#7f3e3b"/>
        <path id="Path_9277" data-name="Path 9277" d="M689.623,313.53a1.226,1.226,0,0,0,.393,0,.925.925,0,0,0,.416-1.248,9.109,9.109,0,0,0-6.659-5.086.948.948,0,0,0-1.017.809.925.925,0,0,0,.809,1.017h0a7.26,7.26,0,0,1,5.225,4.092.925.925,0,0,0,.832.416Z" fill="#263238"/>
        <path id="Path_9278" data-name="Path 9278" d="M682.618,323.68a42.214,42.214,0,0,1-6.751,9.248,6.728,6.728,0,0,0,5.387,1.711Z" fill="#630f0f"/>
        <path id="Path_9279" data-name="Path 9279" d="M684.352,321.067c-.185,1.549-1.179,2.705-2.173,2.589s-1.688-1.48-1.5-3.029,1.179-2.705,2.312-2.589S684.514,319.518,684.352,321.067Z" fill="#263238"/>
        <path id="Path_9280" data-name="Path 9280" d="M683.289,318.177l-3.56-1.433S681.231,319.8,683.289,318.177Z" fill="#263238"/>
        <path id="Path_9281" data-name="Path 9281" d="M723.7,929.979l-18.866,4.393L693.369,891l18.866-4.393Z" fill="#7f3e3b"/>
        <path id="Path_9282" data-name="Path 9282" d="M752.648,942.649H733.3l1.5-44.83h19.375Z" fill="#7f3e3b"/>
        <path id="Path_9283" data-name="Path 9283" d="M731.748,940.406H753.5a1.549,1.549,0,0,1,1.549,1.341l2.474,17.2a3.1,3.1,0,0,1-3.1,3.445c-7.583-.116-11.236-.578-20.808-.578-5.9,0-14.5.624-22.611.624s-8.578-8.046-5.179-8.763c15.167-3.283,17.571-7.768,22.681-12.069A5.017,5.017,0,0,1,731.748,940.406Z" fill="#263238"/>
        <path id="Path_9284" data-name="Path 9284" d="M703.172,931.482l19.768-9.086a1.526,1.526,0,0,1,1.942.555l9.456,14.612a3.121,3.121,0,0,1-1.387,4.416c-6.936,3.052-10.45,4.185-19.143,8.185-5.341,2.451-16.184,8.092-23.536,11.56s-11.144-3.722-8.369-5.8c12.415-9.248,15.976-15.883,18.82-21.918A4.948,4.948,0,0,1,703.172,931.482Z" fill="#263238"/>
        <path id="Path_9285" data-name="Path 9285" d="M693.369,891l6.15,23.259,18.635-5.294-5.9-22.357Z" opacity="0.2"/>
        <path id="Path_9286" data-name="Path 9286" d="M754.174,897.819H734.8l-.763,23.12h19.375Z" opacity="0.2"/>
        <path id="Path_9287" data-name="Path 9287" d="M762.96,389.248c8.046,1.78,16.646,30.7,16.646,30.7l-22.75,24.207s-18.889-27.189-15.028-37.177C745.736,396.554,753.365,387.168,762.96,389.248Z" fill="#263238"/>
        <path id="Path_9288" data-name="Path 9288" d="M750.105,407.675c-4.069-3.722-6.82-2.613-8.693.347-1.85,8.6,9.109,26.611,13.525,33.432C756.972,433.315,759.307,416.16,750.105,407.675Z" opacity="0.4"/>
        <path id="Path_9289" data-name="Path 9289" d="M661.024,389.826s-9.248,3.237,9.248,116.872H748.88c-1.318-32-1.364-51.743,13.872-117.45a231.846,231.846,0,0,0-33.408-4.393,248.308,248.308,0,0,0-35.7,0C678.41,386.266,661.024,389.826,661.024,389.826Z" fill="#263238"/>
        <path id="Path_9290" data-name="Path 9290" d="M660.307,433.431c.509,5.526,1.179,11.745,2.058,18.773,6.451-5.8,11.722-22.311,9.78-31.929A56.852,56.852,0,0,0,660.307,433.431Z" opacity="0.4"/>
        <path id="Path_9291" data-name="Path 9291" d="M668.723,416.16a342.321,342.321,0,0,1-14.311,31.328,192.5,192.5,0,0,1-18.5,30.056l-1.48,1.827-.74.9c-.254.3-.462.578-.855.994a28.757,28.757,0,0,1-4.624,4.069,37.687,37.687,0,0,1-9.664,4.809,70.585,70.585,0,0,1-18.5,3.283,137.239,137.239,0,0,1-35.05-3.121l1.272-9.71c5.318,0,10.89,0,16.184-.439a130.484,130.484,0,0,0,15.86-1.757,62.425,62.425,0,0,0,14.2-3.977,21.2,21.2,0,0,0,5.109-3.1,10.562,10.562,0,0,0,1.6-1.665s.277-.37.462-.624l.532-.763,1.087-1.526a229.226,229.226,0,0,0,15.467-28c4.624-9.826,9.248-20.022,13.479-30.056Z" fill="#803e3c"/>
        <path id="Path_9292" data-name="Path 9292" d="M661.024,389.826c-9.641,2.312-21.479,28.761-21.479,28.761l19.976,29.362s26.611-33.5,23.444-43.72C679.728,393.572,672.792,386.959,661.024,389.826Z" fill="#263238"/>
        <path id="Path_9293" data-name="Path 9293" d="M571.827,482.075l-16.67-7.7-1.665,16.577s13.872,4.092,20.808,0Z" fill="#7f3e3b"/>
        <path id="Path_9294" data-name="Path 9294" d="M545.193,472.712l-1.6,12.624,9.9,5.618,1.665-16.577Z" fill="#7f3e3b"/>
        <path id="Path_9295" data-name="Path 9295" d="M737.112,322.2c-3.537,18.889-4.624,26.981-15.444,35.559-16.184,12.9-38.726,4.439-40.9-15.12-1.988-17.617,4.115-45.546,23.7-50.864A26.195,26.195,0,0,1,737.112,322.2Z" fill="#7f3e3b"/>
        <path id="Path_9296" data-name="Path 9296" d="M695.611,326.177c-1.087,9.641-1.5,34.68,19.675,35.466,25.918.948,33.686-21.2,31.374-30.056,13.5-10.982,15.444-29.871.277-44.321s-48.552-6.381-57.8,7.7C677.416,312.421,695.611,326.177,695.611,326.177Z" fill="#263238"/>
        <path id="Path_9297" data-name="Path 9297" d="M721.575,292.884c-1.248-10.173-.277-17.178,9.248-17.178s22.519,3.445,27.282,13.178,5.156,24.97-8.138,23.421S723.078,305.045,721.575,292.884Z" fill="#595cff"/>
        <path id="Path_9298" data-name="Path 9298" d="M736.326,290.433c-2.312-12.115,8.531-46.24,34.865-48.552,12.207-1.04,17.849,12.092,11.56,14.265,11.56-.139,18.958,15.144,8.185,17.432,8.508,5.456,6.4,16.646-5.734,22.149C776.161,299.89,739.447,307.219,736.326,290.433Z" fill="#263238"/>
        <path id="Path_9299" data-name="Path 9299" d="M764.463,303.45c-8.485,0-17.34-1.248-22.843-4.925a11.306,11.306,0,0,1-5.433-8.786.6.6,0,0,1,.532-.624.555.555,0,0,1,.624.532,10.312,10.312,0,0,0,4.924,7.93c10.473,6.936,34.68,4.624,42.217,2.312,6.52-2.127,10.936-6.266,11.814-11.028a9.571,9.571,0,0,0-3.861-9.248.555.555,0,0,1,0-.809.578.578,0,0,1,.809,0,10.774,10.774,0,0,1,4.277,10.473c-.948,5.2-5.641,9.641-12.577,11.907a75.58,75.58,0,0,1-20.484,2.266Z" fill="#263238"/>
        <path id="Path_9300" data-name="Path 9300" d="M689.716,323.68a14.219,14.219,0,0,0-2.474,10.427c.763,4.855,5.479,5.179,8.9,2.081s6.4-8.693,3.884-12.716a6.057,6.057,0,0,0-10.311.208Z" fill="#7f3e3b"/>
        <path id="Path_9301" data-name="Path 9301" d="M691.034,506.7s11.236,132.917,22.912,207.826c9.41,60.505,16.854,201.93,16.854,201.93h26.4s9.387-137.194,4.624-197.029c-12.092-151.436,14.889-163.782-12.878-212.7Z" fill="#595cff"/>
        <path id="Path_9302" data-name="Path 9302" d="M724.28,556.938a129.009,129.009,0,0,0-24.946,37.639c3.075,29.871,6.728,63.025,10.612,92.064a255.2,255.2,0,0,0,14.334-129.7Z" opacity="0.4"/>
        <path id="Path_9303" data-name="Path 9303" d="M672.561,505.866s-24.392,145.17-28.229,210.6c9.572,60.505,48.737,188.4,48.737,188.4l24.022-8.716S703.8,756.695,689.346,718.523C721.876,609,745.782,581.306,738.823,506.7,722.153,506.7,672.561,505.866,672.561,505.866Z" fill="#595cff"/>
        <path id="Path_9304" data-name="Path 9304" d="M689.855,911.252l32.461-8.809-1.85-12.947-34.749,9.41Z" fill="#263238"/>
        <path id="Path_9305" data-name="Path 9305" d="M727.17,916.985h33.64l1.757-11.791-35.582-1.2Z" fill="#263238"/>
        <path id="Path_9306" data-name="Path 9306" d="M750.105,502.074l3.537,7.052c.277.555-.37,1.11-1.272,1.11H669.879c-.694,0-1.295-.347-1.341-.809l-.717-6.936c0-.486.578-.9,1.341-.9h79.648a1.456,1.456,0,0,1,1.295.486Z" fill="#595cff"/>
        <path id="Path_9307" data-name="Path 9307" d="M750.105,502.074l3.537,7.052c.277.555-.37,1.11-1.272,1.11H669.879c-.694,0-1.295-.347-1.341-.809l-.717-6.936c0-.486.578-.9,1.341-.9h79.648a1.456,1.456,0,0,1,1.295.486Z" opacity="0.5"/>
        <path id="Path_9308" data-name="Path 9308" d="M739.4,510.952h2.127c.439,0,.763-.231.74-.486l-1.017-9.248c0-.277-.393-.486-.809-.486h-2.15c-.416,0-.74.208-.717.486l.994,9.248C738.615,510.767,738.985,510.952,739.4,510.952Z" fill="#595cff"/>
        <path id="Path_9309" data-name="Path 9309" d="M710.778,443.627a1.2,1.2,0,0,1-1.133-.855c-7.537-27.883-23.12-50.864-30.68-54.332a2.635,2.635,0,0,0-1.965-.324,1.156,1.156,0,1,1-.948-2.1,4.624,4.624,0,0,1,3.884.324c8,3.792,23.814,26.449,31.721,54.956,5.664,0,14.4-.763,16.531-.948,2.636-3.144,22.01-27.374,14.774-53.893a1.133,1.133,0,0,1,.809-1.41,1.156,1.156,0,0,1,1.41.809c8.069,29.5-15.329,56.112-15.583,56.367a1.063,1.063,0,0,1-.74.393C728.742,442.609,717.206,443.627,710.778,443.627Z" fill="#595cff"/>
        <path id="Path_9310" data-name="Path 9310" d="M749.088,459.949c-12.6-23.606-17.756-25.27-20-32.854a39.305,39.305,0,0,1,7.167-11.56c-1.526-.439-4.809-1.087-6.936-1.48.231-1.04.486-2.058.717-3.052a22.057,22.057,0,0,0-6.936.324v-2.312a30.057,30.057,0,0,0-8.947-.578q.393,1.641.763,3.329c-2.312.439-5.826,1.156-7.514,1.642a33.292,33.292,0,0,1,7.052,12.878c-6.8,11.676-33.2,86.723,9.757,92.48S761.665,483.578,749.088,459.949Z" fill="#595cff"/>
        <path id="Path_9311" data-name="Path 9311" d="M749.088,459.949c-12.6-23.606-17.756-25.27-20-32.854a39.305,39.305,0,0,1,7.167-11.56c-1.526-.439-4.809-1.087-6.936-1.48.231-1.04.486-2.058.717-3.052a22.057,22.057,0,0,0-6.936.324v-2.312a30.057,30.057,0,0,0-8.947-.578q.393,1.641.763,3.329c-2.312.439-5.826,1.156-7.514,1.642a33.292,33.292,0,0,1,7.052,12.878c-6.8,11.676-33.2,86.723,9.757,92.48S761.665,483.578,749.088,459.949Z" fill="#fff" opacity="0.4"/>
        <path id="Path_9312" data-name="Path 9312" d="M712.7,424.044a14.54,14.54,0,0,0-.347,3.63c0,.855,2.312,1.433,4.878,1.688s13.34.67,12.993-.532.532-2.844.578-3.861-4.277-1.064-7.907-.925S713.414,422.749,712.7,424.044Z" fill="#595cff"/>
        <path id="Path_9313" data-name="Path 9313" d="M687.7,510.952h2.127c.416,0,.74-.231.717-.486l-.994-9.248c0-.277-.393-.486-.832-.486h-2.058c-.416,0-.74.208-.717.486l.994,9.248C686.9,510.767,687.265,510.952,687.7,510.952Z" fill="#595cff"/>
      </g>
    </g>
  </g>
</svg>
