<svg id="milk" xmlns="http://www.w3.org/2000/svg" width="26" height="26" viewBox="0 0 26 26">
  <path id="Vector" d="M13,1.105V5.438a3.26,3.26,0,0,1-3.25,3.25H3.25A3.26,3.26,0,0,1,0,5.438V0L4.214.022A5.1,5.1,0,0,1,6.5.563a5.115,5.115,0,0,0,2.3.542Z" transform="translate(6.5 15.145)" fill="none" stroke="#292826" stroke-linecap="round" stroke-linejoin="round" stroke-width="1.5"/>
  <path id="Vector-2" data-name="Vector" d="M13,6.316v4.517H8.8a5.115,5.115,0,0,1-2.3-.542A5.1,5.1,0,0,0,4.214,9.75L0,9.728V6.316A2.48,2.48,0,0,1,.639,4.778l2.3-2.3a1.093,1.093,0,0,0,.314-.758V0h6.5V1.722a1.093,1.093,0,0,0,.314.758l2.3,2.3A2.48,2.48,0,0,1,13,6.316Z" transform="translate(6.5 5.417)" fill="none" stroke="#292826" stroke-linecap="round" stroke-linejoin="round" stroke-width="1.5"/>
  <path id="Vector-3" data-name="Vector" d="M0,1.083V0" transform="translate(19.5 16.25)" fill="none" stroke="#292826" stroke-linecap="round" stroke-linejoin="round" stroke-width="1.5"/>
  <path id="Vector-4" data-name="Vector" d="M0,1.083V0" transform="translate(6.5 15.145)" fill="none" stroke="#292826" stroke-linecap="round" stroke-linejoin="round" stroke-width="1.5"/>
  <path id="Vector-5" data-name="Vector" d="M7.042,3.25H1.625a1.625,1.625,0,0,1,0-3.25H7.042a1.625,1.625,0,1,1,0,3.25Z" transform="translate(8.667 2.167)" fill="none" stroke="#292826" stroke-linecap="round" stroke-linejoin="round" stroke-width="1.5"/>
  <path id="Vector-6" data-name="Vector" d="M0,0H26V26H0Z" fill="none" opacity="0"/>
</svg>
