<svg id="hospital" xmlns="http://www.w3.org/2000/svg" width="26" height="26" viewBox="0 0 26 26">
  <path id="Vector" d="M0,0H21.667" transform="translate(2.167 23.833)" fill="#292826" stroke="#292826" stroke-linecap="round" stroke-linejoin="round" stroke-width="1.5"/>
  <path id="Vector-2" data-name="Vector" d="M15.167,0H4.333C1.083,0,0,1.939,0,4.333V21.667H19.5V4.333C19.5,1.939,18.417,0,15.167,0Z" transform="translate(3.25 2.167)" fill="none" stroke="#292826" stroke-linecap="round" stroke-linejoin="round" stroke-width="1.5"/>
  <path id="Vector-3" data-name="Vector" d="M5.492,0H1.018A1.024,1.024,0,0,0,0,1.018V7.583H6.5V1.018A1,1,0,0,0,5.492,0Z" transform="translate(9.739 16.25)" fill="none" stroke="#292826" stroke-linecap="round" stroke-linejoin="round" stroke-width="1.5"/>
  <g id="Group" transform="translate(10.292 6.5)">
    <path id="Vector-4" data-name="Vector" d="M0,0V5.417" transform="translate(2.708)" fill="none" stroke="#292826" stroke-linecap="round" stroke-linejoin="round" stroke-width="1.5"/>
    <path id="Vector-5" data-name="Vector" d="M0,0H5.417" transform="translate(0 2.708)" fill="none" stroke="#292826" stroke-linecap="round" stroke-linejoin="round" stroke-width="1.5"/>
  </g>
  <path id="Vector-6" data-name="Vector" d="M0,0H26V26H0Z" fill="none" opacity="0"/>
</svg>
