<svg id="setting-2" xmlns="http://www.w3.org/2000/svg" width="26" height="26" viewBox="0 0 26 26">
  <path id="Vector" d="M6.5,3.25A3.25,3.25,0,1,1,3.25,0,3.25,3.25,0,0,1,6.5,3.25Z" transform="translate(9.75 9.75)" fill="none" stroke="#a5a5a5" stroke-linecap="round" stroke-linejoin="round" stroke-width="1.5"/>
  <path id="Vector-2" data-name="Vector" d="M0,11.179V9.272A2.064,2.064,0,0,1,2.058,7.214c1.961,0,2.762-1.387,1.777-3.088A2.057,2.057,0,0,1,4.593,1.32L6.468.248A1.808,1.808,0,0,1,8.938.9l.119.206c.975,1.7,2.578,1.7,3.564,0L12.74.9a1.808,1.808,0,0,1,2.47-.65L17.084,1.32a2.057,2.057,0,0,1,.758,2.806c-.986,1.7-.184,3.088,1.777,3.088a2.064,2.064,0,0,1,2.058,2.058v1.907a2.064,2.064,0,0,1-2.058,2.058c-1.961,0-2.763,1.387-1.777,3.087a2.055,2.055,0,0,1-.758,2.806L15.21,20.2a1.808,1.808,0,0,1-2.47-.65l-.119-.206c-.975-1.7-2.578-1.7-3.564,0l-.119.206a1.808,1.808,0,0,1-2.47.65L4.593,19.13a2.057,2.057,0,0,1-.758-2.806c.986-1.7.184-3.087-1.777-3.087A2.064,2.064,0,0,1,0,11.179Z" transform="translate(2.167 2.775)" fill="none" stroke="#a5a5a5" stroke-linecap="round" stroke-linejoin="round" stroke-width="1.5"/>
  <path id="Vector-3" data-name="Vector" d="M0,0H26V26H0Z" fill="none" opacity="0"/>
</svg>
